<svg height="512" viewBox="0 0 60 61" width="512" xmlns="http://www.w3.org/2000/svg"><g id="007---Onigiri" fill="none"><g id="Icons" transform="translate(1 1)"><path id="Shape" d="m38.04 58h-18.08c-6.9134048-.0050687-13.33153465-3.5884807-16.96335304-9.4710895s-3.95971658-13.2260219-.86664696-19.4089105l9.04-18.09c3.373839-6.75708282 10.2774535-11.02640819 17.83-11.02640819s14.456161 4.26932537 17.83 11.02640819l9.04 18.09c3.0930696 6.1828886 2.7651714 13.5263017-.866647 19.4089105s-10.0499482 9.4660208-16.963353 9.4710895z" fill="#cfd8dc"/><path id="Shape" d="m35.04 58h-15.08c-6.9134048-.0050687-13.33153465-3.5884807-16.96335304-9.4710895s-3.95971658-13.2260219-.86664696-19.4089105l9.04-18.09c3.0900881-6.31367191 9.3166633-10.49649672 16.33-10.97 7.0133367.47350328 13.2399119 4.65632809 16.33 10.97l9.04 18.09c3.0930696 6.1828886 2.7651714 13.5263017-.866647 19.4089105s-10.0499482 9.4660208-16.963353 9.4710895z" fill="#f5f5f5"/><path id="Shape" d="m44 28v29.11c-1.9302494.5962636-3.9397642.8963421-5.96.89h-18.08c-2.0202358.0063421-4.0297506-.2937364-5.96-.89v-29.11c.0032948-1.1032019.8967981-1.9967052 2-2h26c1.1032019.0032948 1.9967052.8967981 2 2z" fill="#00695c"/><path id="Shape" d="m41 28v29.11c-1.9302494.5962636-3.9397642.8963421-5.96.89h-15.08c-2.0202358.0063421-4.0297506-.2937364-5.96-.89v-29.11c.0032948-1.1032019.8967981-1.9967052 2-2h23c1.1032019.0032948 1.9967052.8967981 2 2z" fill="#009688"/></g><g id="Layer_10" fill="#000"><path id="Shape" d="m20.961 60c19.266 0 20.277.3 24.311-.945 5.861856-1.8372957 10.6234278-6.1523047 13.0272576-11.8054998 2.4038298-5.653195 2.2081887-12.076091-.5352576-17.5725002l-9.038-18.094c-3.5452329-7.0943711-10.795125-11.57615409-18.726-11.57615409s-15.1807671 4.48178299-18.726 11.57615409l-9.038 18.094c-3.25456829 6.4919683-2.91298317 14.2067097.90261337 20.3856327 3.81559653 6.1789231 10.56030283 9.9396216 17.82238663 9.9373673zm23.039-2.656c-3.251.874-3.557.656-23.039.656-1.6753111.0003229-3.3433522-.2202445-4.961-.656v-28.344c0-.5522847.4477153-1 1-1h26c.5522847 0 1 .4477153 1 1zm-39.975-26.774 9.038-18.093c3.1954222-6.43023256 9.7565673-10.4963736 16.937-10.4963736s13.7415778 4.06614104 16.937 10.4963736l9.038 18.093c2.3758993 4.7535234 2.6489664 10.2856733.7527441 15.2500688-1.8962223 4.9643956-5.7878433 8.9057829-10.7277441 10.8649312v-27.685c0-1.6568542-1.3431458-3-3-3h-26c-1.6568542 0-3 1.3431458-3 3v27.685c-4.93990081-1.9591483-8.83152184-5.9005356-10.72774414-10.8649312-1.89622231-4.9643955-1.62315512-10.4965454.75274414-15.2500688z"/><path id="Shape" d="m40.553 34.1c-1.4374097.6170985-2.9889056.9237856-4.553.9-2.7 0-2.9-1-6-1s-3.3 1-6 1c-1.563553.0178476-3.1138318-.2885989-4.553-.9-.4942949-.2468713-1.0951287-.0462949-1.342.448s-.0462949 1.0951287.448 1.342c1.7156718.7544024 3.5729324 1.1328785 5.447 1.11 3.108 0 3.3-1 6-1s2.9 1 6 1c1.8733406.0260283 3.7305707-.3490319 5.447-1.1.4942949-.2468713.6948713-.8477051.448-1.342s-.8477051-.6948713-1.342-.448z"/><path id="Shape" d="m40.553 42.105c-1.4377822.6153836-2.9892637.920364-4.553.895-2.7 0-2.9-1-6-1s-3.3 1-6 1c-1.563553.0178476-3.1138318-.2885989-4.553-.9-.4942949-.2468713-1.0951287-.0462949-1.342.448s-.0462949 1.0951287.448 1.342c1.7156718.7544024 3.5729324 1.1328785 5.447 1.11 3.108 0 3.3-1 6-1s2.9 1 6 1c1.8733406.0260283 3.7305707-.3490319 5.447-1.1.4942949-.2468713.6948713-.8477051.448-1.342s-.8477051-.6948713-1.342-.448z"/><path id="Shape" d="m40.553 50.105c-1.4377822.6153836-2.9892637.920364-4.553.895-2.7 0-2.9-1-6-1s-3.3 1-6 1c-1.563553.0178476-3.1138318-.2885989-4.553-.9-.4942949-.2468713-1.0951287-.0462949-1.342.448s-.0462949 1.0951287.448 1.342c1.7156718.7544024 3.5729324 1.1328785 5.447 1.11 3.108 0 3.3-1 6-1s2.9 1 6 1c1.8733406.0260283 3.7305707-.3490319 5.447-1.1.4942949-.2468713.6948713-.8477051.448-1.342s-.8477051-.6948713-1.342-.448z"/></g></g></svg>